<svg width="32" height="32" viewBox="0 0 32 32" fill="none" xmlns="http://www.w3.org/2000/svg">
<path fill-rule="evenodd" clip-rule="evenodd" d="M23.6544 19.3748H21.9604V15.5536C21.9604 14.6742 21.4479 14.2009 20.6603 14.2009C19.7806 14.2009 19.2161 14.739 19.2161 15.8291V19.3748H17.5217V10.0284H19.2161V13.5439C19.6226 12.9272 20.2799 12.6254 21.1724 12.6254C21.8949 12.6254 22.4857 12.8613 22.9448 13.3471C23.4177 13.8333 23.6544 14.4895 23.6544 15.3433V19.3748ZM11.4753 17.7795C12.7248 17.7795 13.7938 17.0318 14.1157 15.8762H15.9635C15.5117 18.1004 13.7806 19.5578 11.4753 19.5578C8.79553 19.5578 6.67149 17.5598 6.67149 14.7782C6.67149 11.9972 8.79553 9.99857 11.4753 9.99857C13.8038 9.99857 15.547 11.4857 15.977 13.7487H14.1337C13.8537 12.5186 12.7477 11.7518 11.4753 11.7518C9.67355 11.7518 8.47502 13.037 8.47502 14.7782C8.47502 16.5207 9.83745 17.7795 11.4753 17.7795ZM15.7487 3C8.70717 3 3 8.27924 3 14.7917C3 19.6014 5.01454 21.8977 7.7737 23.9909L7.78652 23.9971V29.6412C7.78652 29.908 8.09075 30.0601 8.30419 29.9011L13.1382 26.3107L13.2428 26.3554C14.0529 26.5047 14.8908 26.584 15.7487 26.584C22.7895 26.584 28.4971 21.3041 28.4971 14.7917C28.4971 8.27924 22.7895 3 15.7487 3Z" fill="#777777"/>
</svg>
